<svg width="227" height="224" viewBox="0 0 227 224" fill="#252525" xmlns="http://www.w3.org/2000/svg">
<path d="M191.006 193.113C182.506 204.613 158.388 224.619 124.506 223.113C113.217 222.611 91.7914 222.485 81.0063 219.113C62.4669 213.317 54.0742 213.013 40.5061 199.113C31.1625 189.54 22.8692 170.637 17.006 158.614C1.03503 125.864 -6.22732 112.753 6.50663 78.6136C15.2691 55.1219 24.9021 37.9624 47.5059 27.1128C72.5059 15.113 89.5392 -1.53426 118.006 0.113494C136.59 1.18923 150.489 6.527 167.006 15.1131C204.343 34.5214 220.506 52.1133 225.506 86.6136C228.219 105.334 223.804 144.113 220.506 152.613C213.313 171.151 202.825 177.123 191.006 193.113Z" fill="#252525"/>
</svg>
