<?xml version="1.0" encoding="UTF-8" standalone="no"?><!-- Generator: Gravit.io --><svg xmlns="http://www.w3.org/2000/svg" xmlns:xlink="http://www.w3.org/1999/xlink" style="isolation:isolate" viewBox="0 0 100 100" width="100pt" height="100pt"><defs><clipPath id="_clipPath_ucAD5rD29MWSIY4rDoIgOK5iYmsiD7KD"><rect width="100" height="100"/></clipPath></defs><g clip-path="url(#_clipPath_ucAD5rD29MWSIY4rDoIgOK5iYmsiD7KD)"><g><linearGradient id="_lgradient_0" x1="0.5042715877886437" y1="0.28284539075731896" x2="0.5727455547451459" y2="1.1666166493047982" gradientTransform="matrix(16.568,0,0,32.923,81.742,21.511)" gradientUnits="userSpaceOnUse"><stop offset="0%" stop-opacity="1" style="stop-color:rgb(1,232,247)"/><stop offset="100%" stop-opacity="1" style="stop-color:rgb(0,194,255)"/></linearGradient><path d=" M 98.29 39.484 C 98.698 31.002 92.774 25.374 86.087 21.511 L 81.742 47.042 C 84.751 46.874 86.221 48.016 86.757 48.555 C 87.425 49.226 89.096 51.242 87.09 54.433 C 91.27 53.761 97.796 49.73 98.29 39.484 Z " fill="url(#_lgradient_0)"/><linearGradient id="_lgradient_1" x1="0.32355799605281543" y1="0.10724708975464603" x2="0.7420420587033805" y2="0.7714327870780595" gradientTransform="matrix(72.472,0,0,59.714,16.376,4.299)" gradientUnits="userSpaceOnUse"><stop offset="0%" stop-opacity="1" style="stop-color:rgb(1,232,247)"/><stop offset="100%" stop-opacity="1" style="stop-color:rgb(0,179,236)"/></linearGradient><path d=" M 41.281 9.759 L 36.1 4.552 C 43.9 3.6 64.482 4.821 84.406 17.318 C 84.74 18.661 84.406 20.677 84.406 20.677 L 86.078 21.517 C 87.526 23.588 89.989 29.479 88.25 36.466 C 86.513 43.454 83.514 46.433 82.233 47.048 C 79.559 47.048 75.012 48.594 73.541 55.447 C 72.071 62.3 69.251 63.789 68.025 63.677 L 38.607 64.013 L 19.218 52.591 L 16.376 28.907 L 21.892 21.517 L 31.754 13.454 L 38.774 10.599 L 41.281 9.759 Z  M 76.026 19.542 C 74.729 20.894 73.516 21.542 73.17 21.718 C 65.594 20.107 62.866 16.187 62.866 16.187 C 70.011 16.143 76.46 17.843 81.178 20.718 C 81.178 20.718 78.624 19.89 76.026 19.542 Z " fill-rule="evenodd" fill="url(#_lgradient_1)"/><linearGradient id="_lgradient_2" x1="0.5042756373085138" y1="0.28283896218175597" x2="0.5317204577317467" y2="1.0700113162412404" gradientTransform="matrix(98.658,0,0,88.221,1.342,9.63)" gradientUnits="userSpaceOnUse"><stop offset="0%" stop-opacity="1" style="stop-color:rgb(1,232,247)"/><stop offset="100%" stop-opacity="1" style="stop-color:rgb(0,194,255)"/></linearGradient><path d=" M 73.283 55.449 C 68.09 57.997 61.933 59.473 55.332 59.473 C 36.777 59.473 21.735 47.816 21.735 33.437 C 21.735 22.816 29.943 13.68 41.711 9.63 C 19.328 10.92 1.342 28.901 1.342 51.088 C 1.342 76.693 24.167 97.851 52.323 97.851 C 73.348 97.851 90.849 85.661 100 69.352 C 87.408 72.184 72.503 66.8 73.283 55.449 Z " fill-rule="evenodd" fill="url(#_lgradient_2)"/></g></g></svg>