<?xml version="1.0" encoding="UTF-8" standalone="no"?><!-- Generator: Gravit.io --><svg xmlns="http://www.w3.org/2000/svg" xmlns:xlink="http://www.w3.org/1999/xlink" style="isolation:isolate" viewBox="0 0 100 100" width="100pt" height="100pt"><defs><clipPath id="_clipPath_21amQML9ao0eitAlfzhqgAj3eUgGvofd"><rect width="100" height="100"/></clipPath></defs><g clip-path="url(#_clipPath_21amQML9ao0eitAlfzhqgAj3eUgGvofd)"><g><path d=" M 73.098 57.304 C 73.098 57.204 72.997 57.136 72.906 57.175 C 67.977 59.29 62.349 60.489 56.373 60.489 C 36.934 60.489 21.175 47.803 21.175 32.155 C 21.175 21.6 28.345 12.393 38.977 7.518 C 39.283 7.378 39.132 6.874 38.805 6.953 C 16.585 12.313 0.206 30.759 0.206 52.69 C 0.206 78.819 23.452 100 52.129 100 C 73.65 100 92.113 88.071 99.987 71.073 C 100.037 70.965 99.936 70.849 99.823 70.882 C 97.581 71.556 95.133 71.926 92.569 71.926 C 81.815 71.926 73.098 65.409 73.098 57.369 C 73.098 57.348 73.098 57.326 73.098 57.304 Z " fill-rule="evenodd" fill="rgb(32,35,44)"/><path d=" M 41.969 8.503 C 41.963 8.501 41.958 8.498 41.954 8.493 L 36.42 1.951 C 36.348 1.865 36.397 1.732 36.509 1.725 C 46.084 1.153 66.135 2.542 79.233 11.582 C 80.777 12.397 82.212 13.276 83.498 14.201 C 83.524 14.22 83.543 14.248 83.55 14.28 C 83.722 15.016 83.956 16.566 83.962 18.808 C 83.962 18.863 83.994 18.912 84.043 18.935 C 85.298 19.498 85.954 19.813 86.163 19.92 C 86.186 19.932 86.205 19.949 86.218 19.972 C 88.694 24.323 91.387 35.636 82.506 46.409 C 82.484 46.436 82.45 46.454 82.415 46.458 C 76.359 47.15 73.965 51.461 73.265 54.735 C 73.256 54.776 73.231 54.809 73.195 54.829 C 68.52 57.282 63.008 58.723 56.956 58.723 C 38.492 58.723 23.524 46.868 23.524 32.245 C 23.524 21.889 31.031 12.922 41.97 8.57 C 42 8.558 41.999 8.514 41.969 8.503 Z  M 76.048 17.891 C 76.004 17.885 75.959 17.901 75.928 17.934 C 74.701 19.257 73.559 19.92 73.168 20.131 C 73.139 20.146 73.107 20.15 73.075 20.143 C 66.554 18.679 63.645 15.425 62.983 14.58 C 62.915 14.494 62.978 14.376 63.087 14.376 C 69.643 14.373 75.599 15.909 80.149 18.52 C 80.289 18.601 80.192 18.82 80.037 18.775 C 79.066 18.496 77.568 18.11 76.048 17.891 Z " fill-rule="evenodd" fill="rgb(32,35,44)"/><path d=" M 84.844 46.997 C 84.753 46.962 84.721 46.846 84.784 46.772 C 87.23 43.877 89.107 40.076 90.018 35.714 C 91.008 30.971 90.695 26.332 89.368 22.426 C 89.324 22.296 89.473 22.185 89.58 22.268 C 94.666 26.169 98.564 31.443 98.213 38.71 C 97.707 49.182 91.462 53.432 87.282 54.268 C 87.167 54.291 87.084 54.164 87.142 54.061 C 88.915 50.878 87.32 48.856 86.671 48.17 C 86.378 47.86 85.803 47.358 84.844 46.997 Z " fill-rule="evenodd" fill="rgb(32,35,44)"/></g></g></svg>