<?xml version="1.0" encoding="UTF-8" standalone="no"?><!-- Generator: Gravit.io --><svg xmlns="http://www.w3.org/2000/svg" xmlns:xlink="http://www.w3.org/1999/xlink" style="isolation:isolate" viewBox="0 0 100 100" width="100pt" height="100pt"><defs><clipPath id="_clipPath_p6mjzQpcTqRM1bmGn4d2Y18Ctafmu5Pb"><rect width="100" height="100"/></clipPath></defs><g clip-path="url(#_clipPath_p6mjzQpcTqRM1bmGn4d2Y18Ctafmu5Pb)"><path d=" M 72.803 72.803 L 94.45 72.803 L 72.803 94.45 L 72.803 72.803 Z  M 27.105 72.803 L 27.105 94.45 L 5.458 72.803 L 27.105 72.803 Z  M 27.105 27.105 L 5.458 27.105 L 27.105 5.458 L 27.105 27.105 Z  M 72.803 27.105 L 72.803 5.365 L 94.45 27.105 L 72.803 27.105 Z  M 29.674 49.954 L 49.951 29.676 L 70.229 49.954 L 49.951 70.232 L 29.674 49.954 Z  M 25.347 49.954 C 25.347 56.953 19.673 62.627 12.673 62.627 C 5.674 62.627 0 56.953 0 49.954 C 0 42.954 5.674 37.28 12.673 37.28 C 19.673 37.28 25.347 42.954 25.347 49.954 Z  M 100 49.954 C 100 56.953 94.326 62.627 87.327 62.627 C 80.327 62.627 74.653 56.953 74.653 49.954 C 74.653 42.954 80.327 37.28 87.327 37.28 C 94.326 37.28 100 42.954 100 49.954 L 100 49.954 Z  M 62.627 87.327 C 62.627 94.326 56.953 100 49.954 100 C 42.954 100 37.28 94.326 37.28 87.327 C 37.28 80.327 42.954 74.653 49.954 74.653 C 56.953 74.653 62.627 80.327 62.627 87.327 Z  M 62.627 12.673 C 62.627 19.673 56.953 25.347 49.954 25.347 C 42.954 25.347 37.28 19.673 37.28 12.673 C 37.28 5.674 42.954 0 49.954 0 C 56.953 0 62.627 5.674 62.627 12.673 Z " fill="rgb(0,0,0)"/></g></svg>