<?xml version="1.0" encoding="UTF-8" standalone="no"?><!-- Generator: Gravit.io --><svg xmlns="http://www.w3.org/2000/svg" xmlns:xlink="http://www.w3.org/1999/xlink" style="isolation:isolate" viewBox="0 0 100 100" width="100pt" height="100pt"><defs><clipPath id="_clipPath_cudJDe4k7BsJSIq12sq4RqXEHx0Nphnd"><rect width="100" height="100"/></clipPath></defs><g clip-path="url(#_clipPath_cudJDe4k7BsJSIq12sq4RqXEHx0Nphnd)"><g><g filter="url(#giNqPVii7LrGo61nTN7kWdEd1YXIGFSo)"><path d=" M 14.645 14.645 C 29.594 -0.305 51.656 -3.809 69.94 4.133 L 60.398 13.674 C 47.637 10.034 33.336 13.238 23.287 23.287 C 10.005 36.569 8.681 57.28 19.314 72.044 L 33.501 57.857 L 42.143 66.499 L 19.227 89.415 C 17.638 88.172 16.107 86.819 14.645 85.355 C -4.882 65.829 -4.882 34.171 14.645 14.645 Z " fill="rgb(255,255,255)"/><path d=" M 30.06 95.867 C 48.344 103.809 70.405 100.305 85.355 85.355 C 104.882 65.829 104.882 34.171 85.355 14.645 C 83.892 13.182 82.362 11.829 80.773 10.585 L 57.857 33.501 L 66.499 42.143 L 80.687 27.956 C 91.32 42.72 89.995 63.431 76.713 76.713 C 66.664 86.762 52.363 89.966 39.602 86.326 L 30.06 95.867 Z " fill="rgb(255,255,255)"/><path d=" M 58.642 50 L 50 41.358 L 41.358 50 L 50 58.642 L 58.642 50 Z " fill="rgb(255,255,255)"/><path d=" M 33.501 24.858 L 42.143 33.501 L 33.501 42.143 L 24.858 33.501 L 33.501 24.858 Z " fill="rgb(255,255,255)"/><path d=" M 75.141 66.499 L 66.499 57.857 L 57.857 66.499 L 66.499 75.142 L 75.141 66.499 Z " fill="rgb(255,255,255)"/></g><defs><filter id="giNqPVii7LrGo61nTN7kWdEd1YXIGFSo" x="-200%" y="-200%" width="400%" height="400%" filterUnits="objectBoundingBox" color-interpolation-filters="sRGB"><feGaussianBlur xmlns="http://www.w3.org/2000/svg" in="SourceGraphic" stdDeviation="1"/><feOffset xmlns="http://www.w3.org/2000/svg" dx="0" dy="0" result="pf_100_offsetBlur"/><feFlood xmlns="http://www.w3.org/2000/svg" flood-color="#000000" flood-opacity="0"/><feComposite xmlns="http://www.w3.org/2000/svg" in2="pf_100_offsetBlur" operator="in" result="pf_100_dropShadow"/><feBlend xmlns="http://www.w3.org/2000/svg" in="SourceGraphic" in2="pf_100_dropShadow" mode="normal"/></filter></defs></g></g></svg>