<?xml version="1.0" encoding="UTF-8"?>
<svg version="1.1" viewBox="0 0 57.613 50.738" xmlns="http://www.w3.org/2000/svg"
  xmlns:cc="http://creativecommons.org/ns#" xmlns:dc="http://purl.org/dc/elements/1.1/"
  xmlns:rdf="http://www.w3.org/1999/02/22-rdf-syntax-ns#">
  <metadata>
    <rdf:RDF>
      <cc:Work rdf:about="">
        <dc:format>image/svg+xml</dc:format>
        <dc:type rdf:resource="http://purl.org/dc/dcmitype/StillImage" />
      </cc:Work>
    </rdf:RDF>
  </metadata>
  <g transform="matrix(3.7795 0 0 3.7795 -292.59 -6830.9)">
    <g transform="matrix(.076907 0 0 .076907 73.534 1803.9)" stroke-width="20.829">
      <path
        d="m216.07 45.408h-15.704l-0.0672 173.12h15.705v-54.257h13.93v-15.923h-13.93l0.0661-64.468h13.93v-15.923h-13.93z"
        fill="#fff" />
      <path d="m184.12 67.961h-15.46v70.179h15.46z" fill="#fff" />
      <path d="m184 45.408h-15.223v16.234h15.223z" fill="#fff" />
      <path
        d="m64.963 138.14h87.485v-70.179h-15.45v54.729h-26.686v-54.729h-15.45v54.729h-23.173c-3.1928 0-5.7812-2.5884-5.7812-5.7812v-48.948h-15.449v55.673c0 8.0116 6.4943 14.506 14.504 14.506"
        fill="#fff" />
      <path
        d="m98.321 148.35h-46.931v70.134h15.45v-54.683h24.756c3.1942 0 5.7798 2.5884 5.7798 5.7812v48.902h15.452v-55.628c0-8.0116-6.4943-14.506-14.507-14.506"
        fill="#fff" />
      <path
        d="m148.44 164.84c7.085-3.7655 13.929-2.4768 19.705 2.3075l-29.656 15.764c-0.61542-7.5269 2.6269-14.178 9.9514-18.072m20.575 38.111c-9.0262 4.7995-19.472 2.2138-26.008-7.1359l48.318-25.685c-0.82193-1.9647-1.8311-3.8275-2.9752-5.5966-0.25487-0.40758-0.52863-0.78755-0.79444-1.1813-6.5053-9.2438-17.236-15.299-29.399-15.299-4.7829 0-9.3374 0.95276-13.512 2.6476-0.30985 0.13382-0.62231 0.2521-0.9321 0.39369-1.2749 0.5604-2.5016 1.2075-3.6939 1.9041-1.0918 0.64297-2.1217 1.3382-3.1198 2.0597-8.8982 6.5425-14.696 17.054-14.696 28.947 0 19.856 16.097 35.952 35.953 35.952 18.029 0 32.916-13.287 35.509-30.595-3.8729-0.0111-14.196-0.0389-14.269-0.0444-1.2955 5.8582-5.0115 10.78-10.382 13.636"
        fill="#fff" />
      <path d="m232.97 218.49h15.689v-15.689h-15.689z" fill="#41bea5" />
    </g>
  </g>
</svg>
